<?xml version="1.0" encoding="UTF-8"?>
<svg width="58px" height="73px" viewBox="0 0 58 73" version="1.1" xmlns="http://www.w3.org/2000/svg" xmlns:xlink="http://www.w3.org/1999/xlink">
    <title>634B1A08-E741-4717-B2C9-764FFCE065DE</title>
    <g id="Page-1" stroke="none" stroke-width="1" fill="none" fill-rule="evenodd">
        <g id="Houm-assignment" transform="translate(-39.000000, -34.000000)" fill="#FFFFFF" fill-rule="nonzero" stroke="#FFFFFF" stroke-width="1.98900024">
            <g id="Group-12" transform="translate(0.000000, -1.000000)">
                <g id="fingerprint" transform="translate(40.000000, 36.000000)">
                    <path d="M6.1962351,34.8102846 C6.1962351,52.054764 14.1628231,61.230398 14.1628231,62.8370266 C14.1685376,63.400258 13.9049627,63.9318118 13.4546819,64.2651408 L11.9675855,65.2648208 C11.6797197,65.4761165 11.3322346,65.5887413 10.9761879,65.5861903 C9.63071969,65.5861903 7.15222565,61.730238 4.95698808,56.0177811 C2.41667021,49.3566263 1.03906149,42.3023249 0.885176442,35.1673132 L0.885176442,28.5622848 C0.76213351,21.1038083 3.58536917,13.9021024 8.73265785,8.54438343 C13.8799465,3.18666445 20.9287843,0.112709035 28.3256462,-5.77944361e-06 C29.7596844,-0.00091362846 31.191776,0.106495462 32.6099001,0.321325704 C33.1305802,0.402399831 33.5865167,0.71765391 33.8491472,1.17819425 C34.0785167,1.66380228 34.0785167,2.22780902 33.8491472,2.71341706 L33.2118201,4.42715414 C32.9451849,5.23787422 32.1369451,5.73592486 31.299839,5.60534839 C30.3168989,5.44007493 29.3221574,5.35648728 28.3256462,5.3554284 C10.9407808,5.3554284 6.33786333,22.1357707 6.33786333,28.3123648 L6.1962351,34.8102846 Z M41.4262575,3.5702856 C40.9535658,3.35491646 40.4118527,3.35491646 39.9391611,3.5702856 C39.4610851,3.76333899 39.0874991,4.15303592 38.9123564,4.64137128 L38.2750294,6.39081122 C37.9892055,7.20084821 38.3166175,8.10124989 39.0539846,8.53298258 C45.9423456,12.4490161 50.2045535,19.8030558 50.2072078,27.776822 L50.2072078,33.6677932 C50.2072078,34.6537004 50.9998218,35.452936 51.9775607,35.452936 L53.7479136,35.452936 C54.7177428,35.4339417 55.4994295,34.6457246 55.5182665,33.6677932 L55.5182665,27.526902 C55.4474611,17.5636148 50.0631451,8.41020056 41.4262575,3.5702856 Z M29.2108226,27.6697105 L27.4404697,27.6697105 C26.4627308,27.6697105 25.6701143,28.4689491 25.6701143,29.4548562 L25.6701143,34.8102846 C25.6685961,38.5463464 26.3528548,42.2504236 27.6883191,45.7353585 C27.8639997,46.2152664 28.2391919,46.5935931 28.7151238,46.7707414 C29.1878154,46.9861105 29.7295286,46.9861105 30.2022202,46.7707414 L31.7247237,45.9138728 C32.5051963,45.5017164 32.8554012,44.5651527 32.539086,43.7359986 C31.501815,40.9138268 30.9741819,37.9271419 30.9811755,34.9173932 L30.9811755,29.5619648 C31.0104877,29.0702465 30.8369913,28.5881702 30.5017557,28.2298518 C30.1665202,27.8715335 29.6993464,27.6688259 29.2108226,27.6697105 Z M46.2770244,58.516981 C42.4804316,56.8278845 39.1590611,54.2148364 36.6108976,50.9122727 C36.0778433,50.2317774 35.1369043,50.0359933 34.380253,50.4481355 L32.7869354,51.3407069 C32.3349392,51.5891025 32.0125459,52.0235748 31.9037592,52.5309166 C31.7949725,53.0382583 31.9105668,53.5682218 32.2204225,53.9827183 C35.4001905,58.1252133 39.565155,61.391693 44.3296362,63.479678 C44.7748951,63.6648127 45.275739,63.6590312 45.716678,63.4636666 C46.157617,63.2683021 46.5005869,62.9002195 46.666502,62.4442951 L47.3038291,60.7305581 C47.6140629,59.8339823 47.1583493,58.8515586 46.2770244,58.516981 Z M18.5887053,35.452936 C18.5134074,34.5395522 17.7252343,33.8560607 16.8183524,33.9177132 L15.0479995,33.9177132 C14.1230013,33.9147241 13.3516421,34.630303 13.2776466,35.5600446 L13.2776466,35.5600446 C13.7379384,56.9817582 30.060592,70.8701995 32.8577495,70.8701995 C33.479227,70.8738186 34.0570898,70.5485961 34.380253,70.0133006 L35.3362436,68.5137807 C35.5049983,68.2345373 35.5909989,67.9124381 35.584093,67.5855064 C35.584093,65.5147408 18.9073688,57.6244096 18.5887053,35.452936 Z M51.552676,47.1634728 C46.6097303,45.0802382 43.3867096,40.212353 43.3736457,34.8102846 L43.3736457,28.3480677 C43.5126381,19.7989493 36.8019079,12.7296408 28.3256462,12.4959996 C20.3692851,12.518711 13.7986233,18.7692343 13.3130537,26.777142 L13.3130537,26.777142 C13.322349,27.2411539 13.5141137,27.682426 13.8461405,28.0038346 C14.1781672,28.3252432 14.6232429,28.5004453 15.0834066,28.4908791 L16.8891665,28.4908791 C17.8399054,28.4916463 18.6214901,27.7350566 18.6595194,26.777142 C18.8843993,21.3743708 23.4102252,17.1783837 28.7682344,17.4051423 C34.1262435,17.6319009 38.287467,22.1955365 38.062587,27.5983077 L38.062587,34.7388789 C37.9819686,42.6944709 43.0039771,49.792676 50.4904643,52.304684 C51.2872381,52.3001744 51.9828511,51.7594932 52.190003,50.9836784 L52.6502948,49.2699413 C52.6817886,49.1168585 52.6817886,48.9588869 52.6502948,48.8058041 C52.6204185,48.0935865 52.1961302,47.4587378 51.552676,47.1634728 L51.552676,47.1634728 Z" id="Shape"></path>
                </g>
            </g>
        </g>
    </g>
</svg>